999
RemHaOS layout export, DXF R12 ASCII
999
document: layout.3ed4cea9-14e4-4ed2-b1d4-7f269a10aa52
999
version: layout.3ed4cea9-14e4-4ed2-b1d4-7f269a10aa52@1
999
signature: sha256:4b9338961d9142e97413ccdbbfd5efe84b4820f12443b91c5b7b5c314096e975
999
units: millimetres
999
labels transliterated to ASCII for codepage-safe reading
0
SECTION
2
HEADER
9
$ACADVER
1
AC1009
9
$EXTMIN
10
-50
20
-50
30
0
9
$EXTMAX
10
6050
20
4050
30
0
0
ENDSEC
0
SECTION
2
TABLES
0
TABLE
2
LAYER
70
5
0
LAYER
2
WALLS
70
0
62
7
6
CONTINUOUS
0
LAYER
2
OPENINGS
70
0
62
7
6
CONTINUOUS
0
LAYER
2
COLUMNS
70
0
62
7
6
CONTINUOUS
0
LAYER
2
OBJECTS
70
0
62
7
6
CONTINUOUS
0
LAYER
2
LABELS
70
0
62
7
6
CONTINUOUS
0
ENDTAB
0
ENDSEC
0
SECTION
2
ENTITIES
0
LINE
8
WALLS
10
0
20
3950
30
0
11
6000
21
3950
31
0
0
LINE
8
WALLS
10
6000
20
3950
30
0
11
6000
21
4050
31
0
0
LINE
8
WALLS
10
6000
20
4050
30
0
11
0
21
4050
31
0
0
LINE
8
WALLS
10
0
20
4050
30
0
11
0
21
3950
31
0
0
LINE
8
WALLS
10
5950
20
4000
30
0
11
5950
21
0
31
0
0
LINE
8
WALLS
10
5950
20
0
30
0
11
6050
21
0
31
0
0
LINE
8
WALLS
10
6050
20
0
30
0
11
6050
21
4000
31
0
0
LINE
8
WALLS
10
6050
20
4000
30
0
11
5950
21
4000
31
0
0
LINE
8
WALLS
10
6000
20
50
30
0
11
0
21
50
31
0
0
LINE
8
WALLS
10
0
20
50
30
0
11
0
21
-50
31
0
0
LINE
8
WALLS
10
0
20
-50
30
0
11
6000
21
-50
31
0
0
LINE
8
WALLS
10
6000
20
-50
30
0
11
6000
21
50
31
0
0
LINE
8
WALLS
10
50
20
0
30
0
11
50
21
4000
31
0
0
LINE
8
WALLS
10
50
20
4000
30
0
11
-50
21
4000
31
0
0
LINE
8
WALLS
10
-50
20
4000
30
0
11
-50
21
0
31
0
0
LINE
8
WALLS
10
-50
20
0
30
0
11
50
21
0
31
0
0
ENDSEC
0
EOF
